# xmcd CD database file
#
# Track frame offsets:
#	150
#	17584
#	31038
#	46141
#	61579
#	76966
#	90281
#	105080
#	118737
#	132488
#	140722
#	155373
#	170202
#	184615
#	199721
#	213552
#	221711
#	235812
#	250640
#	264302
#	278308
#	292510
#
# Disc length: 4075 seconds
#
# Revision: 0
# Processed by: cddbd v1.4PL0 Copyright (c) Steve Scherf et al.
# Submitted via: CDex 1.50
#
DISCID=1c0fe916
DTITLE=Billie Holiday - Legends
DYEAR=2002
DGENRE=Jazz
TTITLE0=Billie Holliday - All of Me
TTITLE1=Billie Holliday - God Bless the Child
TTITLE2=Billie Holliday - Lover Man
TTITLE3=Billie Holliday - Don't Explain
TTITLE4=Billie Holliday - Tenderly
TTITLE5=Billie Holliday - My Man
TTITLE6=Billie Holliday - Fine and Mellow
TTITLE7=Billie Holliday - Georgia on My Mind
TTITLE8=Billie Holliday - The Way You Look Tonight
TTITLE9=Billie Holliday - Them There Eyes
TTITLE10=Billie Holliday - If You Were Mine
TTITLE11=Billie Holliday - I Cried For You
TTITLE12=Billie Holliday - Strange Fruit
TTITLE13=Billie Holliday - Love Come Back To Me
TTITLE14=Billie Holliday - Miss Brown to You
TTITLE15=Billie Holliday - Swing Brother Swing
TTITLE16=Billie Holliday - The Man I Love
TTITLE17=Billie Holliday - Pennies From Heaven
TTITLE18=Billie Holliday - Wait a Little Moonlight Can Do
TTITLE19=Billie Holliday - They Can't Take That Away From Me
TTITLE20=Billie Holliday - Billie's Blues
TTITLE21=Billie Holliday - Spreadin' Rhythm Around
EXTD=YEAR: 2002
EXTT0=
EXTT1=
EXTT2=
EXTT3=
EXTT4=
EXTT5=
EXTT6=
EXTT7=
EXTT8=
EXTT9=
EXTT10=
EXTT11=
EXTT12=
EXTT13=
EXTT14=
EXTT15=
EXTT16=
EXTT17=
EXTT18=
EXTT19=
EXTT20=
EXTT21=
PLAYORDER=
